<?xml version="1.0" standalone="no"?>
<!DOCTYPE svg PUBLIC "-//W3C//DTD SVG 20010904//EN"
 "http://www.w3.org/TR/2001/REC-SVG-20010904/DTD/svg10.dtd">
<svg version="1.0" xmlns="http://www.w3.org/2000/svg"
 width="300.000000pt" height="300.000000pt" viewBox="0 0 300.000000 300.000000"
 preserveAspectRatio="xMidYMid meet">
<metadata>
Created by potrace 1.11, written by Peter Selinger 2001-2013
</metadata>
<g transform="translate(0.000000,300.000000) scale(0.100000,-0.100000)"
fill="#000000" stroke="none">
<path d="M935 2060 l-560 -560 563 -563 562 -562 562 562 563 563 -560 560
c-308 308 -562 560 -565 560 -3 0 -257 -252 -565 -560z m1065 -65 l495 -495
-498 -498 -497 -497 -497 497 -498 498 495 495 c272 272 497 495 500 495 3 0
228 -223 500 -495z"/>
<path d="M1000 1783 c-6 -15 -41 -104 -77 -197 -58 -150 -69 -170 -94 -180
-16 -6 -29 -16 -29 -24 0 -17 151 -13 157 5 3 7 -8 13 -24 15 -34 4 -41 30
-19 82 l15 36 74 0 74 0 17 -43 c23 -61 21 -77 -10 -77 -16 0 -24 -5 -21 -12
2 -9 29 -13 87 -13 58 0 85 4 88 13 2 7 -5 12 -16 12 -11 0 -24 6 -30 13 -6 7
-44 98 -84 202 -40 103 -79 190 -85 192 -7 3 -18 -8 -23 -24z m60 -225 c0 -5
-27 -8 -60 -8 -33 0 -60 1 -60 3 0 2 11 30 24 63 12 32 26 68 30 79 6 16 14 5
37 -55 16 -41 29 -78 29 -82z"/>
<path d="M1340 1792 c0 -4 14 -13 30 -19 l30 -11 0 -159 c0 -184 -7 -207 -60
-211 -19 -1 -42 2 -49 7 -13 8 -12 15 4 45 21 39 14 68 -19 74 -51 10 -63 -69
-18 -119 23 -26 35 -31 75 -31 56 -1 93 21 119 73 15 28 18 61 18 182 l0 148
30 6 c60 11 28 23 -65 23 -52 0 -95 -4 -95 -8z"/>
<path d="M1540 1790 c0 -5 6 -10 13 -10 29 0 47 -41 98 -223 40 -141 57 -187
68 -185 9 2 32 57 63 148 26 80 51 152 54 160 4 9 29 -53 60 -145 33 -100 58
-161 67 -163 15 -3 28 33 104 287 23 78 33 97 55 110 15 9 28 19 28 24 0 4
-34 7 -75 7 -80 0 -94 -8 -44 -27 22 -9 29 -17 26 -30 -3 -10 -20 -73 -38
-141 -17 -67 -34 -120 -37 -118 -2 3 -27 73 -55 158 -35 102 -57 153 -66 153
-10 0 -31 -51 -65 -152 -28 -84 -53 -153 -56 -153 -3 0 -22 62 -43 137 -39
142 -39 152 6 153 9 0 17 5 17 10 0 6 -37 10 -90 10 -53 0 -90 -4 -90 -10z"/>
</g>
</svg>
